<?xml version="1.0" encoding="UTF-8"?>
<svg data-bbox="-37.5 -37.5 450 450" height="500" viewBox="0 0 375 375" width="500" xmlns="http://www.w3.org/2000/svg" data-type="ugc">
    <g>
        <defs>
            <clipPath id="c6fedc5c-bc73-44bf-8175-cb9cf2b3b4f2">
                <path d="M139.691 70.293h95.25v142.5h-95.25Zm0 0"/>
            </clipPath>
            <clipPath id="60e78ac8-044a-4984-8dbd-15f1f2079154">
                <path clip-rule="evenodd" d="m198.621 134.988-9.297-5.398 10.281-5.965 9.297 5.398 19.61 11.391a8.396 8.396 0 0 1 3.23 10.598c1.852-1.895 2.89-4.38 3.063-6.926.11-1.582-.14-3.191-.73-4.719-.903-2.43-2.614-4.465-5.032-5.851l-13.93-8.11-13.96-8.113-1.575-.902-1.574.902-16.516 9.582-4.664 2.715 4.664 2.71 10.844 6.305 25.813 15.008-37.305 21.676c-3.117 1.809-6.094 2.856-9.633 3.363-.227.028-.422.086-.648.141-2.836.734-4.551 3.73-3.762 6.672.785 2.91 3.762 4.633 6.656 3.87a5.33 5.33 0 0 0 2.867-1.894c2.22-2.855 4.606-4.918 7.723-6.726l40.422-23.485 1.097.622c.981.566 1.77 1.355 2.274 2.234.508.875.785 1.95.785 3.105 0 1.16-.277 2.207-.785 3.11a6.2 6.2 0 0 1-2.274 2.234l-50.703 29.422c-3.12 1.809-6.097 2.852-9.636 3.363-.223.028-.422.082-.645.14-2.894.79-4.61 3.786-3.848 6.7.786 2.91 3.762 4.633 6.657 3.871a5.3 5.3 0 0 0 2.863-1.894c2.219-2.856 4.61-4.918 7.727-6.727l50.675-29.45c1.965-1.128 3.512-2.683 4.551-4.523 1.067-1.863 1.629-3.984 1.629-6.214 0-2.262-.562-4.356-1.629-6.22-1.07-1.866-2.613-3.421-4.55-4.55l-2.641-1.527-1.547-.903Zm-22.555 13.114-25.816-15.008-1.543-.906-2.64-1.524c-1.938-1.133-3.485-2.687-4.551-4.55a12.46 12.46 0 0 1-1.63-6.22c0-2.261.563-4.351 1.63-6.218a12.26 12.26 0 0 1 4.55-4.52l50.645-29.449c3.121-1.812 5.508-3.875 7.726-6.727a5.3 5.3 0 0 1 2.864-1.894c2.894-.793 5.87.96 6.66 3.871.785 2.91-.957 5.906-3.848 6.7-.226.054-.422.113-.648.14-3.567.508-6.516 1.555-9.633 3.363l-50.676 29.395a6.2 6.2 0 0 0-2.277 2.23c-.504.875-.785 1.95-.785 3.11s.281 2.234.785 3.109a6.2 6.2 0 0 0 2.277 2.23l1.094.653 40.422-23.489c3.117-1.808 5.508-3.87 7.726-6.726a5.32 5.32 0 0 1 2.864-1.89c2.894-.794 5.87.96 6.66 3.87.785 2.91-.957 5.907-3.852 6.7-.222.054-.418.113-.644.14-3.567.508-6.516 1.555-9.637 3.363l-37.332 21.649 25.816 15.008 10.844 6.3 4.664 2.715-4.664 2.715-16.488 9.551-1.574.906-1.575-.906-13.96-8.11-13.93-8.113c-2.39-1.386-4.102-3.418-5.031-5.851a11 11 0 0 1-.73-4.719 11.1 11.1 0 0 1 3.062-6.926 8.4 8.4 0 0 0 3.23 10.602l19.61 11.387 9.296 5.398 10.282-5.961Zm-5.308 37.558c-.899-.703-1.04-2.004-.34-2.91a2.05 2.05 0 0 1 2.894-.34c.899.707 1.04 2.008.336 2.914-.699.903-1.992 1.043-2.89.336m-6.07 22.695c-.899-.707-1.04-2.003-.336-2.91a2.05 2.05 0 0 1 2.894-.34c.899.708 1.04 2.008.336 2.91a2.07 2.07 0 0 1-2.894.34m39.242-110.93a2.04 2.04 0 0 0-2.89.34c-.704.903-.563 2.204.335 2.91a2.047 2.047 0 0 0 2.895-.34c.703-.901.53-2.202-.34-2.91m6.043-22.695c-.903-.707-2.192-.566-2.895.34-.703.903-.562 2.203.336 2.91a2.047 2.047 0 0 0 2.895-.34c.703-.902.562-2.203-.336-2.91m0 0"/>
            </clipPath>
            <linearGradient id="3c86c93a-c0c6-4a17-9cd4-215181d32cd2" y2="502.1" gradientUnits="userSpaceOnUse" x2="169.139" y1="-2.1" gradientTransform="matrix(.2809 0 0 .28263 139.83 70.887)" x1="169.139">
                <stop offset="0" stop-color="#4EAEAA"/>
                <stop offset=".008" stop-color="#4DAEAA"/>
                <stop offset=".016" stop-color="#4DADAA"/>
                <stop offset=".023" stop-color="#4DADAA"/>
                <stop offset=".031" stop-color="#4CACAA"/>
                <stop offset=".039" stop-color="#4CACAA"/>
                <stop offset=".047" stop-color="#4CABAA"/>
                <stop offset=".055" stop-color="#4BABAA"/>
                <stop offset=".063" stop-color="#4BAAAA"/>
                <stop offset=".07" stop-color="#4BAAAA"/>
                <stop offset=".078" stop-color="#4AA9AA"/>
                <stop offset=".086" stop-color="#4AA9AA"/>
                <stop offset=".094" stop-color="#4AA8AA"/>
                <stop offset=".102" stop-color="#49A8AA"/>
                <stop offset=".109" stop-color="#49A7AA"/>
                <stop offset=".117" stop-color="#49A7AA"/>
                <stop offset=".125" stop-color="#48A6AA"/>
                <stop offset=".133" stop-color="#48A6AA"/>
                <stop offset=".141" stop-color="#48A5AA"/>
                <stop offset=".148" stop-color="#47A5AA"/>
                <stop offset=".156" stop-color="#47A4AA"/>
                <stop offset=".164" stop-color="#47A4AA"/>
                <stop offset=".172" stop-color="#46A3AA"/>
                <stop offset=".18" stop-color="#46A3AA"/>
                <stop offset=".188" stop-color="#46A2AA"/>
                <stop offset=".195" stop-color="#45A2AA"/>
                <stop offset=".203" stop-color="#45A1AA"/>
                <stop offset=".211" stop-color="#45A1AA"/>
                <stop offset=".219" stop-color="#44A0AA"/>
                <stop offset=".227" stop-color="#44A0AA"/>
                <stop offset=".234" stop-color="#449FAA"/>
                <stop offset=".242" stop-color="#439FAA"/>
                <stop offset=".25" stop-color="#439EAA"/>
                <stop offset=".258" stop-color="#439EAA"/>
                <stop offset=".266" stop-color="#429DAA"/>
                <stop offset=".273" stop-color="#429DAA"/>
                <stop offset=".281" stop-color="#429CAA"/>
                <stop offset=".289" stop-color="#419CAA"/>
                <stop offset=".297" stop-color="#419BAA"/>
                <stop offset=".305" stop-color="#419BAA"/>
                <stop offset=".313" stop-color="#409AAA"/>
                <stop offset=".32" stop-color="#409AAA"/>
                <stop offset=".328" stop-color="#4099AA"/>
                <stop offset=".336" stop-color="#3F99AA"/>
                <stop offset=".344" stop-color="#3F98AA"/>
                <stop offset=".352" stop-color="#3F98AA"/>
                <stop offset=".359" stop-color="#3E97AA"/>
                <stop offset=".367" stop-color="#3E97AA"/>
                <stop offset=".375" stop-color="#3E96AA"/>
                <stop offset=".383" stop-color="#3D96AA"/>
                <stop offset=".391" stop-color="#3D95AA"/>
                <stop offset=".398" stop-color="#3D95AA"/>
                <stop offset=".406" stop-color="#3C94AA"/>
                <stop offset=".414" stop-color="#3C94AA"/>
                <stop offset=".422" stop-color="#3C93AA"/>
                <stop offset=".43" stop-color="#3B93AA"/>
                <stop offset=".438" stop-color="#3B92AA"/>
                <stop offset=".445" stop-color="#3A92AA"/>
                <stop offset=".453" stop-color="#3A91AA"/>
                <stop offset=".461" stop-color="#3A91AA"/>
                <stop offset=".469" stop-color="#3990AB"/>
                <stop offset=".477" stop-color="#3990AB"/>
                <stop offset=".484" stop-color="#398FAB"/>
                <stop offset=".492" stop-color="#388FAB"/>
                <stop offset=".5" stop-color="#388EAB"/>
                <stop offset=".508" stop-color="#388EAB"/>
                <stop offset=".516" stop-color="#378DAB"/>
                <stop offset=".523" stop-color="#378DAB"/>
                <stop offset=".531" stop-color="#378CAB"/>
                <stop offset=".539" stop-color="#368CAB"/>
                <stop offset=".547" stop-color="#368BAB"/>
                <stop offset=".555" stop-color="#368BAB"/>
                <stop offset=".563" stop-color="#358AAB"/>
                <stop offset=".57" stop-color="#358AAB"/>
                <stop offset=".578" stop-color="#3589AB"/>
                <stop offset=".586" stop-color="#3489AB"/>
                <stop offset=".594" stop-color="#3488AB"/>
                <stop offset=".602" stop-color="#3488AB"/>
                <stop offset=".609" stop-color="#3387AB"/>
                <stop offset=".617" stop-color="#3387AB"/>
                <stop offset=".625" stop-color="#3386AB"/>
                <stop offset=".633" stop-color="#3286AB"/>
                <stop offset=".641" stop-color="#3285AB"/>
                <stop offset=".648" stop-color="#3285AB"/>
                <stop offset=".656" stop-color="#3184AB"/>
                <stop offset=".664" stop-color="#3184AB"/>
                <stop offset=".672" stop-color="#3183AB"/>
                <stop offset=".68" stop-color="#3083AB"/>
                <stop offset=".688" stop-color="#3082AB"/>
                <stop offset=".695" stop-color="#3082AB"/>
                <stop offset=".703" stop-color="#2F81AB"/>
                <stop offset=".711" stop-color="#2F81AB"/>
                <stop offset=".719" stop-color="#2F80AB"/>
                <stop offset=".727" stop-color="#2E80AB"/>
                <stop offset=".734" stop-color="#2E7FAB"/>
                <stop offset=".742" stop-color="#2E7FAB"/>
                <stop offset=".75" stop-color="#2D7EAB"/>
                <stop offset=".758" stop-color="#2D7EAB"/>
                <stop offset=".766" stop-color="#2D7DAB"/>
                <stop offset=".773" stop-color="#2C7DAB"/>
                <stop offset=".781" stop-color="#2C7CAB"/>
                <stop offset=".789" stop-color="#2C7CAB"/>
                <stop offset=".797" stop-color="#2B7BAB"/>
                <stop offset=".805" stop-color="#2B7BAB"/>
                <stop offset=".813" stop-color="#2B7AAB"/>
                <stop offset=".82" stop-color="#2A7AAB"/>
                <stop offset=".828" stop-color="#2A79AB"/>
                <stop offset=".836" stop-color="#2A79AB"/>
                <stop offset=".844" stop-color="#2978AB"/>
                <stop offset=".852" stop-color="#2978AB"/>
                <stop offset=".859" stop-color="#2977AB"/>
                <stop offset=".867" stop-color="#2877AB"/>
                <stop offset=".875" stop-color="#2876AB"/>
                <stop offset=".883" stop-color="#2876AB"/>
                <stop offset=".891" stop-color="#2775AB"/>
                <stop offset=".898" stop-color="#2775AB"/>
                <stop offset=".906" stop-color="#2774AB"/>
                <stop offset=".914" stop-color="#2674AB"/>
                <stop offset=".922" stop-color="#2673AB"/>
                <stop offset=".93" stop-color="#2673AB"/>
                <stop offset=".938" stop-color="#2572AC"/>
                <stop offset=".945" stop-color="#2572AC"/>
                <stop offset=".953" stop-color="#2571AC"/>
                <stop offset=".961" stop-color="#2471AC"/>
                <stop offset=".969" stop-color="#2470AC"/>
                <stop offset=".977" stop-color="#2470AC"/>
                <stop offset=".984" stop-color="#236FAC"/>
                <stop offset=".992" stop-color="#236FAC"/>
                <stop offset="1" stop-color="#236EAC"/>
            </linearGradient>
        </defs>
        <path fill="#ffffff" d="M412.5-37.5v450h-450v-450z"/>
        <path fill="#ffffff" d="M412.5-37.5v450h-450v-450z"/>
        <g clip-path="url(#c6fedc5c-bc73-44bf-8175-cb9cf2b3b4f2)">
            <g clip-path="url(#60e78ac8-044a-4984-8dbd-15f1f2079154)">
                <path d="M139.719 70.293v142.5h95.195v-142.5Zm0 0" fill="url(#3c86c93a-c0c6-4a17-9cd4-215181d32cd2)"/>
            </g>
        </g>
        <path d="M80.658 268.406v-30.953h21.063v6.344H88.486v6.797h11.532v6.343H88.486v11.469Zm0 0" fill="#000000"/>
        <path d="M107.298 268.406v-30.953h21.969v6.344h-14.14v5.797h11.968v6.343h-11.969v6.125h14.141v6.344Zm0 0" fill="#000000"/>
        <path d="m153.96 268.406-10.702-17.687h-.22v17.687h-7.484v-30.953h8.063l9.938 16.062h.234v-16.062h7.516v30.953Zm0 0" fill="#000000"/>
        <path d="M168.359 268.406v-30.953h7.843v30.953Zm0 0" fill="#000000"/>
        <path d="M201.347 268.406 195.503 259h-.406l-5.89 9.406h-8.563l9.953-15.562-9.765-15.391h8.906l5.672 9.172h.36l5.765-9.172h8.594l-9.766 15.25 9.89 15.703Zm0 0" fill="#000000"/>
        <path d="M214.802 268.406v-30.953h21.063v6.344H222.63v6.797h11.532v6.343H222.63v11.469Zm0 0" fill="#000000"/>
        <path d="M266.02 237.453v16.953q0 6.22-.75 9.078c-.492 1.906-1.593 3.266-3.312 4.078-1.711.805-4.496 1.203-8.36 1.203-3.875 0-6.667-.398-8.375-1.203q-2.564-1.219-3.312-4.078-.736-2.858-.734-9.078v-16.953h7.828v18.625c0 2.125.07 3.594.219 4.406q.233 1.22 1.125 1.625c.601.274 1.687.406 3.25.406s2.64-.132 3.234-.406q.901-.405 1.125-1.625.234-1.218.234-4.406v-18.625Zm0 0" fill="#000000"/>
        <path d="M271.689 268.406v-6.125l14.171-18.484h-13.64v-6.344h23.406v5.89l-14.312 18.72h14.359v6.343Zm0 0" fill="#000000"/>
        <path d="M124.694 287.24v1.688h-3.329v10.828h-2.062v-10.828h-3.344v-1.688Zm0 0" fill="#000000"/>
        <path d="M131.514 288.897v3.671h4.313v1.672h-4.313v3.844h4.86v1.672h-6.922v-12.531h6.922v1.672Zm0 0" fill="#000000"/>
        <path d="M140.912 293.475q0-1.842.844-3.297a6.06 6.06 0 0 1 2.328-2.266 6.45 6.45 0 0 1 3.219-.828q1.98 0 3.546.984 1.561.987 2.266 2.782h-2.469q-.486-.997-1.36-1.485-.859-.482-1.983-.484-1.253 0-2.22.563c-.648.374-1.155.914-1.53 1.609-.368.687-.547 1.496-.547 2.422q-.002 1.395.547 2.437a4.1 4.1 0 0 0 1.53 1.61q.967.562 2.22.562 1.124.001 1.984-.484.873-.481 1.36-1.485h2.468c-.469 1.2-1.227 2.125-2.266 2.782q-1.565.97-3.546.968-1.77 0-3.235-.812a6.2 6.2 0 0 1-2.312-2.281c-.563-.977-.844-2.079-.844-3.297m0 0" fill="#000000"/>
        <path d="M168.198 287.24v12.516h-2.063v-5.469h-5.875v5.469h-2.062V287.24h2.062v5.375h5.875v-5.375Zm0 0" fill="#000000"/>
        <path d="M183.869 299.756h-2.047l-6.172-9.344v9.344h-2.062v-12.531h2.062l6.172 9.328v-9.328h2.047Zm0 0" fill="#000000"/>
        <path d="M194.985 299.881q-1.753 0-3.22-.812a6.1 6.1 0 0 1-2.327-2.297c-.563-.977-.844-2.079-.844-3.297q0-1.842.844-3.297a6.06 6.06 0 0 1 2.328-2.266 6.45 6.45 0 0 1 3.219-.828q1.747 0 3.218.828a6 6 0 0 1 2.313 2.266c.57.969.86 2.07.86 3.297 0 1.218-.29 2.32-.86 3.297a6.05 6.05 0 0 1-2.313 2.296 6.54 6.54 0 0 1-3.219.813m0-1.781q1.23 0 2.203-.563a4 4 0 0 0 1.515-1.625q.563-1.043.563-2.437 0-1.39-.563-2.422c-.367-.695-.87-1.235-1.515-1.61q-.973-.562-2.203-.562-1.253 0-2.22.563c-.648.374-1.155.914-1.53 1.609-.368.687-.547 1.496-.547 2.422q-.002 1.395.547 2.437.56 1.05 1.53 1.625.967.563 2.22.563m0 0" fill="#000000"/>
        <path d="M208.14 298.1h4.219v1.656h-6.281V287.24h2.062Zm0 0" fill="#000000"/>
        <path d="M222.489 299.881q-1.753 0-3.22-.812a6.1 6.1 0 0 1-2.327-2.297c-.563-.977-.844-2.079-.844-3.297q0-1.842.844-3.297a6.06 6.06 0 0 1 2.328-2.266 6.45 6.45 0 0 1 3.218-.828q1.748 0 3.22.828a6 6 0 0 1 2.312 2.266c.57.969.86 2.07.86 3.297 0 1.218-.29 2.32-.86 3.297a6.05 6.05 0 0 1-2.313 2.296 6.54 6.54 0 0 1-3.219.813m0-1.781q1.23 0 2.203-.563a4 4 0 0 0 1.515-1.625q.563-1.043.563-2.437 0-1.39-.563-2.422c-.367-.695-.87-1.235-1.515-1.61q-.973-.562-2.204-.562-1.252 0-2.218.563c-.649.374-1.157.914-1.532 1.609-.367.687-.546 1.496-.546 2.422q-.001 1.395.546 2.437.56 1.05 1.532 1.625.966.563 2.218.563m0 0" fill="#000000"/>
        <path d="M242.644 290.85q-.486-.937-1.36-1.407-.859-.482-1.983-.484-1.253 0-2.22.563a3.9 3.9 0 0 0-1.53 1.578c-.368.687-.547 1.48-.547 2.375q-.002 1.347.547 2.39a4 4 0 0 0 1.53 1.594q.967.549 2.22.547 1.67 0 2.703-.937c.695-.626 1.125-1.47 1.28-2.532h-4.687v-1.64h6.891v1.609a6.24 6.24 0 0 1-1.047 2.688 6.16 6.16 0 0 1-2.172 1.953q-1.346.719-2.969.718-1.77 0-3.234-.812a6.2 6.2 0 0 1-2.312-2.281c-.563-.977-.844-2.079-.844-3.297q0-1.842.844-3.297a6.06 6.06 0 0 1 2.328-2.266 6.45 6.45 0 0 1 3.219-.828q1.98 0 3.546.984 1.561.987 2.266 2.782Zm0 0" fill="#000000"/>
        <path d="m259.477 287.24-4.14 7.985v4.531h-2.063v-4.531l-4.156-7.985h2.297l2.89 6.141 2.906-6.14Zm0 0" fill="#000000"/>
    </g>
</svg>
