<svg width="220" height="64" viewBox="0 0 220 64" fill="none" xmlns="http://www.w3.org/2000/svg" role="img" aria-labelledby="title desc">
  <title id="title">FenixFuz</title>
  <desc id="desc">Logo FenixFuz pour Dossiers Business Urgents</desc>
  <rect width="64" height="64" rx="18" fill="url(#markGradient)"/>
  <path d="M20 42V17h28v7H29v6h16v7H29v5h-9Z" fill="#061120"/>
  <path d="M43 20c2.7 4.2 2.9 8.4.7 12.4-2.1 3.8-6.3 6.3-12.5 7.6 4.1 1.4 8.1 1.3 12-.2 5.9-2.3 9.8-7.7 9.8-13.8 0-3.5-1.2-6.7-3.6-9.3L43 20Z" fill="#64E3FF" fill-opacity=".82"/>
  <path d="M82 22h33v8H92v7h19v8H92v15H82V22Zm41 0h10v38h-10V22Zm19 0h12l14 22V22h10v38h-11l-15-23v23h-10V22Zm46 0h29v8h-19v7h17v8h-17v7h20v8h-30V22Z" fill="#F7FBFF"/>
  <text x="82" y="16" fill="#AAB8CF" font-family="Inter, Arial, sans-serif" font-size="10" font-weight="700" letter-spacing="2">FENIXFUZ</text>
  <defs>
    <linearGradient id="markGradient" x1="0" y1="0" x2="64" y2="64" gradientUnits="userSpaceOnUse">
      <stop stop-color="#F6C76A"/>
      <stop offset=".5" stop-color="#64E3FF"/>
      <stop offset="1" stop-color="#2CE07F"/>
    </linearGradient>
  </defs>
</svg>
